<svg xmlns="http://www.w3.org/2000/svg" viewBox="0 0 64 64" role="img" aria-label="GRID favicon">
  <defs>
    <linearGradient id="bg" x1="0" y1="0" x2="1" y2="1">
      <stop offset="0%" stop-color="#0a0a16" />
      <stop offset="100%" stop-color="#141428" />
    </linearGradient>
    <linearGradient id="neon" x1="0" y1="0" x2="1" y2="1">
      <stop offset="0%" stop-color="#f97316" />
      <stop offset="55%" stop-color="#ec4899" />
      <stop offset="100%" stop-color="#a855f7" />
    </linearGradient>
    <filter id="glow" x="-30%" y="-30%" width="160%" height="160%">
      <feGaussianBlur stdDeviation="1.3" result="blur" />
      <feMerge>
        <feMergeNode in="blur" />
        <feMergeNode in="SourceGraphic" />
      </feMerge>
    </filter>
  </defs>

  <rect x="2" y="2" width="60" height="60" rx="14" fill="url(#bg)" />
  <rect x="2" y="2" width="60" height="60" rx="14" fill="none" stroke="#ffffff22" />

  <path
    d="M44 22c-2.6-3.3-6.4-5-11.3-5-8.2 0-14.7 5.9-14.7 15 0 9.2 6.5 15 15 15 4.1 0 8-1.1 11.2-3.3v-8.7H32.5v-5h17v16.4c-4.2 3.7-10.3 5.6-16.8 5.6C20.8 52 13 43.8 13 32s7.8-20 19.7-20c6.6 0 12.1 2.3 15.8 6.9z"
    fill="url(#neon)"
    filter="url(#glow)"
  />

  <g stroke="url(#neon)" stroke-width="1.2" opacity="0.55">
    <path d="M23 25v14" />
    <path d="M30 23v16" />
    <path d="M37 25v14" />
    <path d="M23 29h14" />
    <path d="M23 35h14" />
  </g>

  <path
    d="M51.5 13.5l1.1 2.8 2.9 1.1-2.9 1.1-1.1 2.8-1.1-2.8-2.9-1.1 2.9-1.1z"
    fill="#f9a8d4"
    filter="url(#glow)"
  />
</svg>
